<svg width="48" height="48" viewBox="0 0 48 48" fill="none" xmlns="http://www.w3.org/2000/svg">
	<path d="M25 10L25 30" stroke="#0B0A0B" stroke-width="4" stroke-linecap="round"/>
	<path d="M23.345 33.7179L24.9068 34.9673L27.4056 31.8438L25.8438 30.5945L23.345 33.7179ZM17.4056 23.8438C16.543 23.1538 15.2845 23.2937 14.5944 24.1562C13.9044 25.0187 14.0443 26.2773 14.9068 26.9673L17.4056 23.8438ZM25.8438 30.5945L17.4056 23.8438L14.9068 26.9673L23.345 33.7179L25.8438 30.5945Z" fill="#0B0A0B"/>
	<path d="M26.655 33.7179L25.0932 34.9673L22.5944 31.8438L24.1562 30.5945L26.655 33.7179ZM32.5944 23.8438C33.457 23.1538 34.7155 23.2937 35.4056 24.1562C36.0956 25.0187 35.9557 26.2773 35.0932 26.9673L32.5944 23.8438ZM24.1562 30.5945L32.5944 23.8438L35.0932 26.9673L26.655 33.7179L24.1562 30.5945Z" fill="#0B0A0B"/>
</svg>
